<?xml version="1.0" encoding="utf-8"?>
<!-- Generator: Adobe Illustrator 25.3.1, SVG Export Plug-In . SVG Version: 6.00 Build 0)  -->
<svg version="1.1" id="Vrstva_1" xmlns="http://www.w3.org/2000/svg" xmlns:xlink="http://www.w3.org/1999/xlink" x="0px" y="0px"
	 viewBox="0 0 5 5" style="enable-background:new 0 0 5 5;" xml:space="preserve">
<style type="text/css">
	.st0{fill:#030405;}
</style>
<g transform="translate(0.000000,1640.000000) scale(0.100000,-0.100000)">
	<path class="st0" d="M4.1,16397.8l-0.7,0v-0.8v-0.8h0.3c0.5-0.1,1.6-0.2,2-0.3c0.9-0.3,1.3-0.9,1.6-2.3c0.1-0.4,0.1-1.5,0.1-8.8
		v-8.2H5.2H3l-0.1-0.2c-0.3-0.4-0.2-1.3,0.1-1.6c0.1-0.1,0.4-0.1,2.2-0.1c2,0,2.1,0,2.1-0.1c0,0,0-4,0-8.6c0-7.7-0.1-8.5-0.1-9
		c-0.2-1.1-0.4-1.6-0.8-2c-0.4-0.3-1.2-0.5-2.7-0.6H3.5v-0.8v-0.8h6h6v0.8v0.8l-0.8,0c-2.2,0.1-2.8,0.7-3.1,2.8
		c-0.1,0.5-0.1,1.2-0.1,9v8.5h4.1c3.6,0,4.2,0,4.2-0.1c0.1-0.1,0.1-0.1,0.1,0c0,0.1,0,0.1,0.2,0.1s0.2,0,0.5-0.3
		c0.1-0.2,0.2-0.4,0.2-0.4c0,0,0.1-0.3,0.2-0.5c0.1-0.2,0.2-0.5,0.3-0.5c0-0.1,0.1-0.1,0.1-0.1l0,0c0,0,0.1-0.2,0.2-0.4
		c0.1-0.2,0.2-0.4,0.2-0.4c0,0,0-0.1,0.1-0.2c0,0,0.1-0.2,0.1-0.2s0.2-0.5,0.5-0.9c0,0,0-0.1,0-0.1s0-0.2,0.1-0.2
		c0.1-0.2,0.2-0.4,0.2-0.4s0,0,0,0s0,0,0,0c0,0,0-0.1,0.1-0.2c0.1,0,0.1-0.2,0.1-0.2s0-0.1,0-0.1c0,0,0,0,0-0.1c0,0,0.1-0.3,0.2-0.5
		s0.3-0.6,0.4-0.7c0-0.1,0.1-0.2,0.1-0.2c0.1-0.1,0.4-0.6,0.4-0.7c0,0,0-0.1,0.1-0.3c0.1-0.1,0.1-0.2,0.1-0.3s0.1-0.2,0.2-0.4
		c0.1-0.2,0.2-0.4,0.2-0.5s0-0.2,0.1-0.3c0.1-0.2,0.1-0.2,0.1-0.3s0-0.1,0.1-0.2c0,0,0.2-0.3,0.4-0.7c0.1-0.3,0.4-0.8,0.5-1
		s0.2-0.3,0.2-0.4s0-0.2,0.1-0.2c0.1-0.1,0.1-0.2,0.1-0.2c0-0.1,0-0.1,0.1-0.2c0,0,0.1-0.1,0.1-0.2c0-0.1,0-0.1,0-0.2
		c0,0,0.4-0.8,0.5-0.8c0,0,0.1-0.2,0.1-0.4c0.2-0.3,0.8-1.5,0.8-1.5c0,0,0.1-0.1,0.2-0.3s0.2-0.4,0.2-0.5c0-0.1,0.1-0.3,0.2-0.5
		c0.1-0.2,0.2-0.4,0.2-0.5c0-0.1,0.1-0.2,0.1-0.2c0,0,0.1-0.1,0.1-0.2s0.1-0.2,0.2-0.5s0.2-0.5,0.2-0.5s0-0.1,0.1-0.2
		c0-0.1,0.2-0.3,0.3-0.5c0.1-0.2,0.2-0.4,0.2-0.5c0-0.1,0-0.1,0.1,0c0,0.1,0,2.5,0,5.3l0,5.1l-0.1,0.3c-0.4,0.6-0.4,0.8-0.5,1
		c0,0.1-0.1,0.2-0.1,0.2c0,0.1-0.5,1-0.5,1c0,0,0,0.2-0.1,0.3c-0.1,0.2-0.3,0.5-0.5,0.9c-0.1,0.3-0.3,0.6-0.3,0.6s0,0,0,0.1
		c0,0,0,0.1,0,0.1c0,0-0.1,0.1-0.1,0.2c-0.1,0.2-0.1,0.5-0.2,0.6c0,0.1-0.1,0.2-0.2,0.4c0,0.2-0.2,0.5-0.3,0.7
		c-0.2,0.3-0.4,0.8-0.8,1.4c-0.1,0.2-0.2,0.4-0.2,0.5s-0.1,0.2-0.2,0.5c0,0.1,0,0.2-0.1,0.2c0,0-0.1,0.1-0.1,0.2
		c0,0.1-0.1,0.3-0.2,0.5c-0.1,0.1-0.1,0.3-0.1,0.3c0,0,0.8,0,3,0h3v-2.2c0-1.2,0-4.3,0-6.8c0-2.5,0-6.5,0-8.8v-4.2l4,0l4,0v0.8v0.8
		l-0.9,0c-1,0.1-1.5,0.2-1.9,0.5c-0.7,0.5-1,1.3-1,3.3c0,0.5,0,4.4,0,8.8v7.9H37c0.7,0,1.5,0,1.6,0c0.7-0.2,1.2-0.4,1.7-0.9
		c0.8-0.8,1.2-2,1.5-4.4l0.1-0.8h0.7h0.7v3.5c0,2,0,5.2,0,7.2v3.7h-0.8c-0.5,0-0.7,0-0.7-0.1c0,0,0-0.5-0.1-0.8
		c-0.3-2.9-0.9-4.2-2.2-4.8c-0.5-0.2-1.2-0.4-2.2-0.5c-0.9,0-1.3-0.1-1.5,0c-0.1,0-0.1,0.5-0.1,9.5v9.6l0.2,0c0,0.1,1.2,0.1,2.7,0
		c1.8,0,2.7,0,3-0.2c3.4-0.7,4.8-2.7,5.6-8.6l0-0.5h0.5c0.2,0,0.5,0.1,0.7,0.1l0.3,0v0.3c0,0.2,0,0.8,0,1.2c0,0.4,0,1.3-0.1,1.9
		c-0.2,3.1-0.2,4-0.2,5.5c-0.1,2-0.1,2-0.2,2.2c-0.1,0-20.3-0.1-20.4-0.1c0,0,0-0.3,0-0.7c0-0.8-0.1-0.7,0.8-0.8
		c1.9-0.2,2.8-1.2,3.1-3c0.2-1.2,0.2-1.8,0.2-9.3v-7.2H28c-3.4,0-3.5,0-3.5,0.1c-0.1,0.2-0.5,0.8-0.5,1s-0.5,1-0.9,1.7
		c-0.1,0.1-0.2,0.3-0.2,0.5c0,0.1-0.1,0.2-0.1,0.2c0,0,0,0.1,0,0.1s0,0.1,0,0.1c0,0,0,0-0.1,0.1c0,0.1-0.1,0.3-0.2,0.5
		s-0.1,0.3-0.1,0.4c0,0-0.3,0.6-0.5,0.8c0,0.1-0.1,0.2-0.2,0.4c0,0.1-0.2,0.3-0.3,0.5c-0.1,0.1-0.2,0.3-0.2,0.4s0,0.1,0,0.1
		c0,0-0.1,0.2-0.2,0.4c-0.1,0.2-0.2,0.5-0.3,0.6c0,0,0,0.2,0,0.2c0,0.1,0,0.2-0.1,0.2s-0.1,0.1-0.1,0.2c0,0-0.1,0.2-0.2,0.3
		s-0.2,0.3-0.2,0.4c0,0.2-0.1,0.3-0.3,0.6c-0.1,0.2-0.2,0.5-0.4,0.8c-0.1,0.2-0.3,0.6-0.4,0.7c-0.1,0.2-0.1,0.3-0.1,0.4
		c0,0,0,0.1,0,0.1c0,0-0.1,0-0.1,0.1s-0.1,0.3-0.2,0.5c-0.1,0.2-0.2,0.5-0.2,0.5c0,0.1-0.1,0.3-0.5,1c0,0.1-0.1,0.2-0.1,0.2
		c0,0,0,0,0,0s-0.1,0.1-0.1,0.2c0,0.1-0.1,0.2-0.1,0.3c0,0.1-0.1,0.2-0.1,0.2c0,0,0,0,0,0c0,0,0,0.1-0.1,0.2c-0.1,0.2-0.5,1-0.5,1
		s-0.1,0.2-0.1,0.3c-0.1,0.2-0.2,0.4-0.3,0.6s-0.1,0.3-0.1,0.3c0,0.2-0.6,0.8-0.8,1c-0.3,0.2-0.8,0.2-1.1,0
		c-0.8-0.3-1.6-1.5-1.8-2.8c-0.1-0.7-0.1-0.9,0.2-1.6c0.1-0.3,0.2-0.5,0.3-0.5c0.1-0.1,0.4-0.8,0.4-0.9c0,0,0-0.1,0.1-0.1
		s0.2-0.4,0.4-0.8c0.1-0.1,0.2-0.5,0.4-0.8c0.1-0.3,0.3-0.7,0.3-0.7c0,0,0.1-0.1,0.1-0.2c0.1-0.2,0.6-1,0.6-1.1c0,0,0.1-0.2,0.1-0.3
		c0.2-0.4,0.2-0.4,0.2-0.5c0,0,0.1-0.2,0.1-0.2c0.1-0.1,0.1-0.2,0.1-0.3c0-0.1,0.1-0.2,0.2-0.4c0.1-0.2,0.2-0.4,0.2-0.5
		c0.1-0.1,0.1-0.2,0.1-0.2l0.1,0c0,0,0-0.1,0-0.2c0.1-0.3,0.3-0.5,0.4-0.8s0.5-0.9,0.5-1c0,0,0.1-0.2,0.2-0.3
		c0.2-0.5,0.2-0.5,0.4-0.7c0,0,0.1-0.2,0.1-0.2s0.2-0.5,0.4-0.8c0,0,0.1-0.2,0.2-0.5s0.2-0.5,0.4-0.8s0.2-0.5,0.4-0.7
		s0.1-0.4,0.2-0.4s0,0,0-0.1c0-0.1,0-0.1-0.2-0.1c-0.1,0-0.2,0-0.2,0c0,0,0,0,0,0s0,0,0-0.1s-0.8-0.1-3.6-0.1h-3.6l-0.2,7.1
		c0,3.9-0.1,7.4-0.1,7.7c-0.1,0.9,0.1,2,0.4,2.8c0.2,0.6,0.8,1.3,1.1,1.6c0.4,0.2,1.1,0.4,1.7,0.5c0.9,0,0.8-0.1,0.8,0.8v0.7l-2.1,0
		C11.4,16397.8,5.6,16397.8,4.1,16397.8z"/>
</g>
</svg>
